<svg id="Layer_1" data-name="Layer 1" xmlns="http://www.w3.org/2000/svg" viewBox="0 0 128 128"><defs><style>.cls-1{fill:#2e79bd;}.cls-2{fill:#2d3e50;}</style></defs><title>n</title><path class="cls-1" d="M94.244,53.685A30.91819,30.91819,0,1,0,125.1619,84.60345,30.95308,30.95308,0,0,0,94.244,53.685Zm0,54.13859A23.22039,23.22039,0,1,1,117.4641,84.60346,23.24639,23.24639,0,0,1,94.244,107.82359Z" id="id_107" style="fill: rgb(214, 173, 77);"></path><path class="cls-1" d="M92.28956,95.50351a15.7579,15.7579,0,0,1-3.99279-.75826,22.96273,22.96273,0,0,1-2.27432-.92648l1.44882-3.87483a17.70531,17.70531,0,0,0,2.81341,1.04444,12.38055,12.38055,0,0,0,3.4537.47162,5.0567,5.0567,0,0,0,2.81364-.55584,1.82971,1.82971,0,0,0,.758-1.56678,1.92993,1.92993,0,0,0-.30317-1.09516,2.97182,2.97182,0,0,0-.876-.8255,8.71323,8.71323,0,0,0-1.449-.72452q-.87645-.35354-2.02164-.758-1.11191-.40449-2.17334-.893a8.75422,8.75422,0,0,1-1.92043-1.19614,5.15839,5.15839,0,0,1-1.90391-4.21173,7.14785,7.14785,0,0,1,.32015-2.13983,5.66,5.66,0,0,1,.994-1.86994,5.7206,5.7206,0,0,1,1.75221-1.43195,8.48623,8.48623,0,0,1,2.56073-.85924v-3.639H96.535v3.50419a18.94259,18.94259,0,0,1,3.01582.50547,13.35093,13.35093,0,0,1,2.00489.67392l-1.04467,4.04328a15.59692,15.59692,0,0,0-2.57771-.80875,13.74646,13.74646,0,0,0-3.08307-.33679,3.89677,3.89677,0,0,0-2.32481.539,1.69575,1.69575,0,0,0-.70754,1.41531,1.84769,1.84769,0,0,0,.21894.92648,2.01692,2.01692,0,0,0,.69079.69079,7.4186,7.4186,0,0,0,1.1624.59027q.69021.28745,1.668.62492a24.91883,24.91883,0,0,1,2.74616,1.18191,10.26758,10.26758,0,0,1,2.19009,1.46626,5.97685,5.97685,0,0,1,1.44882,1.9365,6.0444,6.0444,0,0,1,.52234,2.59332,6.8273,6.8273,0,0,1-.3034,2.00374,5.18965,5.18965,0,0,1-1.01071,1.83529,6.1873,6.1873,0,0,1-1.83644,1.44836,8.89638,8.89638,0,0,1-2.7799.87553v4.11075H92.28956Z" id="id_108" style="fill: rgb(214, 172, 73);"></path><path class="cls-2" d="M91.9453,34.41122l-.01181,14.56284A35.66771,35.66771,0,0,0,66.68993,61.921a128.32534,128.32534,0,0,1-19.316,1.39913c-12.34,0-23.9075-1.58833-32.56636-4.47723C5.98319,55.90274,2.8381,52.50935,2.8381,50.31409V34.41122l1.79325,1.072c8.76923,5.25758,25.149,8.52488,42.74262,8.52488,17.61335,0,34.00884-3.26729,42.782-8.52093Z" id="id_109" style="fill: rgb(219, 173, 65);"></path><path class="cls-2" d="M58.5434,84.60276a35.9624,35.9624,0,0,0,.26408,4.34716c-3.689.31137-7.52381.469-11.4335.469-12.34,0-23.9075-1.5883-32.56636-4.47328C5.98319,82.00548,2.8381,78.60815,2.8381,76.41288V60.51l1.79325,1.072c8.76923,5.26155,25.149,8.52488,42.74262,8.52488a137.62877,137.62877,0,0,0,14.5983-.7646A35.456,35.456,0,0,0,58.5434,84.60276Z" id="id_110" style="fill: rgb(222, 174, 62);"></path><path class="cls-2" d="M72.66087,113.02295A120.74628,120.74628,0,0,1,47.374,115.5217c-12.34,0-23.9075-1.58833-32.56636-4.47725-8.82441-2.94014-11.96951-6.33356-11.96951-8.5288V86.60884l1.79325,1.076c8.76923,5.25758,25.149,8.52488,42.74262,8.52488,4.41418,0,8.74953-.205,12.91147-.59513A35.79892,35.79892,0,0,0,72.66087,113.02295Z" id="id_111" style="fill: rgb(214, 169, 64);"></path><path class="cls-2" d="M14.80652,34.01438c8.66089,2.88645,20.22746,4.476,32.56882,4.476s23.90793-1.58958,32.56882-4.476c8.82331-2.9411,11.96705-6.33483,11.96705-8.53s-3.14374-5.58892-11.96705-8.53c-8.66089-2.88645-20.22746-4.476-32.56882-4.476s-23.90793,1.58958-32.56882,4.476c-8.82331,2.9411-11.96705,6.33483-11.96705,8.53S5.98322,31.07327,14.80652,34.01438Z" id="id_112" style="fill: rgb(212, 169, 68);"></path></svg>